<?xml version="1.0" encoding="utf-8"?>
<!-- Generator: Adobe Illustrator 26.0.1, SVG Export Plug-In . SVG Version: 6.00 Build 0)  -->
<svg version="1.1" id="Layer_1" xmlns="http://www.w3.org/2000/svg" xmlns:xlink="http://www.w3.org/1999/xlink" x="0px" y="0px"
	 viewBox="0 0 500 500" style="enable-background:new 0 0 500 500;" xml:space="preserve">
<style type="text/css">
	.st0{fill:#00A551;}
	.st1{fill:#EC1C24;}
</style>
<g>
	<g>
		<path class="st0" d="M117.6,361.7c-30.7,0-59.6-12-81.4-33.7c-21.7-21.7-33.7-50.6-33.7-81.4s12-59.6,33.7-81.4
			c21.7-21.7,50.6-33.7,81.4-33.7s59.6,12,81.4,33.7c21.7,21.7,33.7,50.6,33.7,81.4s-12,59.6-33.7,81.4
			C177.2,349.7,148.3,361.7,117.6,361.7z M117.6,142.3c-27.9,0-54.1,10.9-73.8,30.6s-30.6,45.9-30.6,73.8
			c0,27.9,10.9,54.1,30.6,73.8c19.7,19.7,45.9,30.6,73.8,30.6s54.1-10.9,73.8-30.6c19.7-19.7,30.6-45.9,30.6-73.8
			s-10.9-54.1-30.6-73.8S145.4,142.3,117.6,142.3z"/>
	</g>
	<circle class="st1" cx="117.6" cy="246.6" r="95.8"/>
	<path d="M107.2,279.2c-1,2-3.4,2.8-5.4,1.8c-2-1-2.8-3.4-1.8-5.4c1-2,5.9-7.9,7.9-7C109.9,269.7,108.2,277.2,107.2,279.2z
		 M125.2,267.6c-1.9,1.1,0.1,8.5,1.2,10.5c1.1,1.9,3.5,2.7,5.5,1.6c1.9-1.1,2.7-3.5,1.6-5.5C132.4,272.2,127.2,266.5,125.2,267.6z
		 M150.4,255.7c-2-0.9-9.6-2.4-10.5-0.4c-0.9,2,5.1,6.8,7.1,7.7c2,0.9,4.4,0.1,5.3-2C153.3,259,152.4,256.7,150.4,255.7z
		 M84.8,255.7c-2,0.9-2.9,3.3-2,5.3c0.9,2,3.3,2.9,5.3,2c2-0.9,8.1-5.7,7.1-7.7C94.4,253.3,86.8,254.8,84.8,255.7z M101.8,212.2
		c-2,1-2.8,3.4-1.8,5.4c1,2,5.9,7.9,7.9,7c2-1,0.3-8.5-0.7-10.5C106.2,212,103.8,211.2,101.8,212.2z M131.8,213.6
		c-1.9-1.1-4.4-0.4-5.5,1.6c-1.1,1.9-3.1,9.4-1.2,10.5c1.9,1.1,7.1-4.6,8.2-6.6C134.5,217.1,133.8,214.7,131.8,213.6z M150.4,237.5
		c2-0.9,2.9-3.3,2-5.3c-0.9-2-3.3-2.9-5.3-2c-2,0.9-8.1,5.7-7.1,7.7C140.8,239.9,148.3,238.4,150.4,237.5z M88.1,230.2
		c-2-0.9-4.4-0.1-5.3,2c-0.9,2-0.1,4.4,2,5.3c2,0.9,9.6,2.4,10.5,0.4C96.2,235.9,90.2,231.1,88.1,230.2z M121.6,171.2
		c-0.2-2.2-2.1-3.9-4.3-3.7c-2.2,0.2-3.9,2.1-3.7,4.3c0.2,2.2,2.5,9.6,4.7,9.4C120.5,181.1,121.7,173.4,121.6,171.2z M118.3,312
		c-2.2-0.2-4.5,7.2-4.7,9.4c-0.2,2.2,1.5,4.1,3.7,4.3c2.2,0.2,4.1-1.5,4.3-3.7C121.7,319.8,120.5,312.2,118.3,312z M67.1,190.5
		c-1.7-1.5-4.2-1.3-5.7,0.4c-1.5,1.7-1.3,4.2,0.4,5.7c1.7,1.5,8.5,5,10,3.3C73.3,198.2,68.8,191.9,67.1,190.5z M164.3,292.4
		c-1.7,1.5,1.9,8.3,3.3,10c1.5,1.7,4,1.9,5.7,0.4c1.7-1.5,1.9-4,0.4-5.7C172.2,295.4,166,290.9,164.3,292.4z M42.2,242.6
		c-2.2,0.2-3.9,2.1-3.7,4.3c0.2,2.2,2.1,3.9,4.3,3.7c2.2-0.2,9.6-2.5,9.4-4.7C52,243.7,44.4,242.4,42.2,242.6z M183,245.9
		c-0.2,2.2,7.2,4.5,9.4,4.7c2.2,0.2,4.1-1.5,4.3-3.7c0.2-2.2-1.5-4.1-3.7-4.3C190.7,242.4,183.1,243.7,183,245.9z M61.4,297.1
		c-1.5,1.7-1.3,4.2,0.4,5.7c1.7,1.5,4.2,1.3,5.7-0.4c1.5-1.7,5-8.5,3.3-10C69.2,290.9,62.9,295.4,61.4,297.1z M163.3,199.9
		c1.5,1.7,8.3-1.9,10-3.3c1.7-1.5,1.9-4,0.4-5.7c-1.5-1.7-4-1.9-5.7-0.4C166.4,191.9,161.9,198.2,163.3,199.9z M91.9,175.6
		c-1-2-3.4-2.8-5.4-1.8c-2,1-2.8,3.4-1.8,5.4c1,2,6,7.8,8,6.8C94.7,185.1,92.9,177.6,91.9,175.6z M143.7,306.6
		c-2.1,0.7-1.4,8.4-0.7,10.5c0.7,2.1,3,3.2,5.1,2.5c2.1-0.7,3.2-3,2.5-5.1C149.9,312.4,145.8,305.9,143.7,306.6z M49.2,214.6
		c-2.1-0.7-4.4,0.5-5.1,2.6c-0.7,2.1,0.5,4.4,2.6,5.1c2.1,0.7,9.8,1.3,10.5-0.8C57.9,219.3,51.3,215.2,49.2,214.6z M178.4,270.5
		c-1,2,5,6.9,6.9,7.9c2,1,4.4,0.2,5.4-1.8c1-2,0.2-4.4-1.8-5.4C186.9,270.3,179.4,268.6,178.4,270.5z M46.6,272.3
		c-2,1-2.8,3.4-1.8,5.4c1,2,3.4,2.8,5.4,1.8c2-1,7.8-6,6.8-8C56.1,269.4,48.6,271.3,46.6,272.3z M177.5,220.5
		c0.7,2.1,8.4,1.4,10.5,0.7c2.1-0.7,3.2-3,2.5-5.1c-0.7-2.1-3-3.2-5.1-2.5C183.3,214.3,176.8,218.4,177.5,220.5z M85.5,314.9
		c-0.7,2.1,0.5,4.4,2.6,5.1c2.1,0.7,4.4-0.5,5.1-2.6c0.7-2.1,1.3-9.8-0.8-10.5C90.2,306.3,86.2,312.8,85.5,314.9z M141.5,185.8
		c2,1,6.9-5,7.9-6.9c1-2,0.2-4.4-1.8-5.4c-2-1-4.4-0.2-5.4,1.8C141.2,177.3,139.5,184.8,141.5,185.8z"/>
</g>
<g>
	<path class="st0" d="M484,281.3c-3.6,59.3-53,106.5-113.3,106.5c-60.2,0-109.6-47.1-113.3-106.5h-13.5c1.7,31.3,14.7,60.5,37,82.8
		c24,24,55.9,37.2,89.8,37.2s65.8-13.2,89.8-37.2c22.3-22.3,35.3-51.5,37-82.8H484z"/>
	<path class="st1" d="M265.9,281.3c3.6,54.7,49.1,98,104.8,98s101.1-43.3,104.8-98H265.9z"/>
	<path d="M359.4,319c-1.1,2.2-3.7,3.1-5.9,2c-2.2-1.1-3.1-3.7-2-5.9c1.1-2.2,6.5-8.7,8.6-7.6C362.3,308.6,360.4,316.8,359.4,319z
		 M379.1,306.3c-2.1,1.2,0.1,9.3,1.3,11.5c1.2,2.1,3.9,2.9,6,1.7c2.1-1.2,2.9-3.9,1.7-6C386.9,311.4,381.2,305.1,379.1,306.3z
		 M406.6,293.3c-2.2-1-10.5-2.7-11.5-0.5c-1,2.2,5.6,7.4,7.8,8.5c2.2,1,4.8,0.1,5.8-2.2C409.8,296.9,408.9,294.3,406.6,293.3z
		 M334.8,293.3c-2.2,1-3.2,3.6-2.2,5.8c1,2.2,3.6,3.2,5.8,2.2c2.2-1,8.8-6.3,7.8-8.5C345.3,290.6,337,292.3,334.8,293.3z
		 M371.5,345.9c-2.4-0.2-5,7.9-5.2,10.3c-0.2,2.4,1.7,4.5,4.1,4.7c2.4,0.2,4.5-1.7,4.7-4.1C375.3,354.5,373.9,346.1,371.5,345.9z
		 M421.9,324.4c-1.8,1.6,2,9.1,3.6,10.9c1.6,1.8,4.4,2,6.2,0.4c1.8-1.6,2-4.4,0.4-6.2S423.8,322.8,421.9,324.4z M309.2,329.6
		c-1.6,1.8-1.4,4.6,0.4,6.2c1.8,1.6,4.6,1.4,6.2-0.4c1.6-1.8,5.5-9.3,3.6-10.9C317.6,322.8,310.8,327.7,309.2,329.6z M399.3,340
		c-2.3,0.8-1.5,9.2-0.7,11.5c0.8,2.3,3.3,3.5,5.6,2.8c2.3-0.8,3.5-3.3,2.8-5.6S401.6,339.2,399.3,340z M437.4,300.5
		c-1.1,2.2,5.4,7.6,7.6,8.7c2.2,1.1,4.8,0.2,5.9-2c1.1-2.2,0.2-4.8-2-5.9C446.7,300.2,438.5,298.3,437.4,300.5z M292.9,302.4
		c-2.2,1.1-3,3.8-1.9,5.9c1.1,2.2,3.8,3,5.9,1.9c2.2-1.1,8.6-6.6,7.5-8.8C303.3,299.3,295.1,301.3,292.9,302.4z M335.6,349.2
		c-0.8,2.3,0.5,4.8,2.8,5.5c2.3,0.8,4.8-0.5,5.5-2.8c0.8-2.3,1.4-10.7-0.9-11.5C340.7,339.6,336.3,346.8,335.6,349.2z"/>
</g>
<g>
	<path class="st0" d="M447.2,143.7c-27.9,62.8-99.2,94.9-164.8,73.6l-5.6,15.1c36.3,12,75.1,9.8,110-6.1
		c34.1-15.6,60.7-42.7,75.5-76.9L447.2,143.7z"/>
	<path class="st1" d="M326.4,98.7l-40.6,109c60.5,19.4,125.9-9.9,151.9-67.6L326.4,98.7z"/>
	<path d="M337.4,138.3c0.4,2.9-1.6,5.5-4.4,5.9s-5.5-1.6-5.9-4.4c-0.4-2.9,0.5-12.9,3.3-13.3C333.2,126.1,337,135.4,337.4,138.3z
		 M364.2,125.8c-2-2.1-10.6-7.3-12.6-5.3c-2.1,2,3.2,10.6,5.2,12.7s5.4,2.1,7.4,0C366.2,131.1,366.2,127.8,364.2,125.8z M360.2,166
		c-2.7,1-1.5,11-0.5,13.7c1,2.7,4,4.1,6.7,3.1c2.7-1,4.1-4,3.1-6.7C368.5,173.3,362.9,165,360.2,166z M328.6,174
		c-2.9-0.1-5.5,9.6-5.6,12.5c-0.1,2.9,2.2,5.3,5.1,5.4c2.9,0.1,5.3-2.2,5.4-5.1S331.4,174.1,328.6,174z M387.4,145.8
		c-2.1,2,2.9,10.7,4.9,12.8c2,2.1,5.3,2.2,7.4,0.2c2.1-2,2.2-5.3,0.2-7.4C397.9,149.3,389.5,143.8,387.4,145.8z"/>
</g>
</svg>
